<svg width="262" height="106" viewBox="0 0 262 106" fill="none" xmlns="http://www.w3.org/2000/svg">
<path d="M206.632 54L198.5 104L255.201 37C244.642 42.1048 227.878 48.6025 206.632 54Z" fill="#35393F"/>
<path d="M1 1V43.8541C13.8333 50.736 56.2 64.5 123 64.5C154.74 64.5 183.372 59.9094 206.632 54C227.878 48.6025 244.642 42.1048 255.201 37C257.411 35.9313 259.349 34.9237 261 34V1H1Z" fill="#35393F"/>
<path d="M206.632 54C183.372 59.9094 154.74 64.5 123 64.5C56.2 64.5 13.8333 50.736 1 43.8541V1H261V34C259.349 34.9237 257.411 35.9313 255.201 37M206.632 54L198.5 104L255.201 37M206.632 54C227.878 48.6025 244.642 42.1048 255.201 37" stroke="#35393F"/>
</svg>

