<svg width="262" height="75" viewBox="1 2 261 74" fill="none" xmlns="http://www.w3.org/2000/svg">
<path d="M206.632 23L198.5 73L255.201 6C244.642 11.1048 227.878 17.6025 206.632 23Z" fill="#35393F"/>
<path d="M1 1V3C13.8333 9.88198 56.2 33.5 123 33.5C154.74 33.5 183.372 28.9094 206.632 23C227.878 17.6025 244.642 11.1048 255.201 6C257.411 4.93133 259.349 3.9237 261 3V1H1Z" fill="#35393F"/>
<path d="M206.632 23C183.372 28.9094 154.74 33.5 123 33.5C56.2 33.5 13.8333 9.88198 1 3V1H261V3C259.349 3.9237 257.411 4.93133 255.201 6M206.632 23L198.5 73L255.201 6M206.632 23C227.878 17.6025 244.642 11.1048 255.201 6" stroke="#35393F"/>
</svg>
